<?xml version="1.0" encoding="UTF-8" standalone="no"?>
<!-- Generator: Adobe Illustrator 23.0.6, SVG Export Plug-In . SVG Version: 6.00 Build 0)  -->

<svg
   xmlns:dc="http://purl.org/dc/elements/1.1/"
   xmlns:cc="http://creativecommons.org/ns#"
   xmlns:rdf="http://www.w3.org/1999/02/22-rdf-syntax-ns#"
   xmlns:svg="http://www.w3.org/2000/svg"
   xmlns="http://www.w3.org/2000/svg"
   xmlns:sodipodi="http://sodipodi.sourceforge.net/DTD/sodipodi-0.dtd"
   xmlns:inkscape="http://www.inkscape.org/namespaces/inkscape"
   version="1.1"
   id="CN2030"
   x="0px"
   y="0px"
   viewBox="0 0 1920 1920"
   style="enable-background:new 0 0 1920 1920;"
   xml:space="preserve"
   sodipodi:docname="logo.svg"
   inkscape:version="0.92.4 5da689c313, 2019-01-14"><metadata
   id="metadata49"><rdf:RDF><cc:Work
       rdf:about=""><dc:format>image/svg+xml</dc:format><dc:type
         rdf:resource="http://purl.org/dc/dcmitype/StillImage" /></cc:Work></rdf:RDF></metadata><defs
   id="defs47" /><sodipodi:namedview
   pagecolor="#ffffff"
   bordercolor="#666666"
   borderopacity="1"
   objecttolerance="10"
   gridtolerance="10"
   guidetolerance="10"
   inkscape:pageopacity="0"
   inkscape:pageshadow="2"
   inkscape:window-width="2560"
   inkscape:window-height="1326"
   id="namedview45"
   showgrid="false"
   inkscape:zoom="0.49166667"
   inkscape:cx="737.46247"
   inkscape:cy="881.91833"
   inkscape:window-x="0"
   inkscape:window-y="40"
   inkscape:window-maximized="1"
   inkscape:current-layer="CN2030" />
<style
   type="text/css"
   id="style2">
	.st0{fill:#FF9700;}
	.st1{fill:#00DEE8;}
</style>
<g
   id="g42"
   transform="matrix(1.35,0,0,1.35,-399.89511,-185.22224)">
	<g
   id="g38">
		<path
   class="st0"
   d="m 638.97,269.65 -3.78,18.26 c -7.47,-1.87 -13.35,-1.53 -19.64,1.32 -11.46,5.2 -14.5,16.51 -5.49,36.36 9.01,19.85 19.28,23.17 30.09,18.26 6.29,-2.86 9.77,-6.77 13.69,-14 l 17.07,10.16 c -4.89,9.81 -12.24,17.63 -23.54,22.76 -25.5,11.58 -49.07,1.25 -61.45,-26.03 -12.31,-27.12 -5.06,-53.18 19.95,-64.54 11.46,-5.19 21.87,-5.83 33.1,-2.55 z"
   id="path4"
   inkscape:connector-curvature="0"
   style="fill:#ff9700" />
		<path
   class="st0"
   d="m 755.45,307.72 -0.28,17.49 c -10.44,2.22 -18.25,0.88 -24.7,-6.99 -3.48,11.79 -12.19,18.49 -22.88,21.72 -17.99,5.43 -32.67,-2.73 -37.59,-19.02 -5.94,-19.69 5.59,-34.83 32.24,-42.88 l 10.35,-3.12 -1.33,-4.41 c -3.38,-11.2 -9.21,-13.33 -20.58,-9.9 -5.94,1.79 -14.08,6.1 -22.32,11.92 l -10.3,-14.48 c 9.87,-7.79 21.08,-13.59 31.26,-16.66 24.95,-7.53 38.97,0.27 45.11,20.64 l 10.96,36.32 c 2.21,7.29 5.19,9.17 10.06,9.37 z m -33.54,-1.92 -5.17,-17.14 -7.98,2.41 c -13.07,3.94 -18.08,10.64 -15.11,20.48 2.41,7.98 7.86,11.33 15.33,9.08 6.96,-2.1 11.15,-7.25 12.93,-14.83 z"
   id="path6"
   inkscape:connector-curvature="0"
   style="fill:#ff9700" />
		<path
   class="st0"
   d="M 814.88,215.34 814.85,240 c -2.92,-0.21 -5.28,-0.34 -8.42,0.21 -11.35,1.98 -15.13,11.28 -15.86,26.7 l 8.34,47.85 -24.8,4.32 -16.14,-92.56 21.48,-3.75 5.41,17.59 c 2.11,-13.68 9.68,-22.92 20.51,-24.81 3.32,-0.57 6.21,-0.53 9.51,-0.21 z"
   id="path8"
   inkscape:connector-curvature="0"
   style="fill:#ff9700" />
		<path
   class="st0"
   d="m 923.24,257.09 c 1.3,29.04 -11.77,50.38 -34.96,51.42 -10.45,0.47 -18.97,-3.59 -25.15,-10.94 l -1.01,9.27 -22.31,1 -5.86,-131.22 25.02,-3.96 2.25,50.29 c 5.31,-8.22 14.47,-13.6 24.57,-14.05 22.66,-1.01 36.05,16.85 37.45,48.19 z m -26.2,1.17 c -1.09,-24.44 -8.3,-30.86 -18.21,-30.41 -7.44,0.33 -13.06,5.55 -16.82,12.82 l 1.79,40.2 c 4.18,6.2 10.01,9.67 16.74,9.37 10.45,-0.48 17.52,-9.14 16.5,-31.98 z"
   id="path10"
   inkscape:connector-curvature="0"
   style="fill:#ff9700" />
		<path
   class="st0"
   d="m 1029.88,267.46 c -3.24,29.6 -22.17,47.68 -50.18,44.61 -27.84,-3.05 -42.73,-23.41 -39.33,-54.42 3.26,-29.78 22.16,-47.68 50.36,-44.59 27.83,3.05 42.54,23.39 39.15,54.4 z m -63.44,-6.95 c -2.36,21.5 2.96,31.53 15.3,32.88 12.33,1.35 19.72,-7.47 22.06,-28.79 2.36,-21.5 -2.96,-31.53 -15.12,-32.86 -12.52,-1.37 -19.9,7.45 -22.24,28.77 z"
   id="path12"
   inkscape:connector-curvature="0"
   style="fill:#ff9700" />
		<path
   class="st0"
   d="m 1132.86,271.49 -17.63,66.11 -24.32,-6.49 16.54,-62 c 2.79,-10.45 -0.21,-14.36 -6.37,-16.01 -7.02,-1.87 -13.74,1.29 -20.85,8.01 l -16.72,62.69 -24.32,-6.49 24.21,-90.78 21.07,5.62 -1.18,11.98 c 9.79,-7.11 19.89,-9.92 31.54,-6.82 15.92,4.27 22.6,17.06 18.03,34.18 z"
   id="path14"
   inkscape:connector-curvature="0"
   style="fill:#ff9700" />
		<path
   class="st0"
   d="m 1312.08,358.88 -34.97,58.81 -21.64,-12.86 32.79,-55.16 c 5.53,-9.29 3.71,-13.88 -1.77,-17.14 -6.25,-3.71 -13.57,-2.5 -22.25,2.03 l -33.16,55.77 -21.64,-12.86 48.02,-80.76 18.74,11.14 -4.39,11.21 c 11.35,-4.18 21.84,-4.13 32.2,2.03 14.19,8.43 17.13,22.55 8.07,37.79 z"
   id="path16"
   inkscape:connector-curvature="0"
   style="fill:#ff9700" />
		<path
   class="st0"
   d="m 1379.14,448.33 -45.54,-36.99 c -10.02,15.15 -6.77,24.64 2.58,32.24 6.19,5.03 12.98,7.35 22.89,8.09 l -0.82,17.6 c -11.85,-0.03 -24.28,-3.28 -35.7,-12.56 -23.39,-19 -23.12,-44.36 -4.56,-67.2 17.88,-22.01 43.57,-29.46 64.9,-12.14 20.64,16.76 21.71,40.47 2.82,63.72 -2.02,2.49 -4.75,5.29 -6.57,7.24 z m -8.36,-28.49 c 8.94,-11.01 11.04,-21.18 1.68,-28.78 -7.71,-6.26 -16.77,-4.94 -28.91,8.03 l 26.55,21.57 z"
   id="path18"
   inkscape:connector-curvature="0"
   style="fill:#ff9700" />
		<path
   class="st0"
   d="m 1402.3,529.88 8.43,-9.43 c -12.26,2.11 -22.15,-1.32 -30.66,-10.58 -11.75,-12.79 -9.52,-26.88 3.79,-39.11 l 49.74,-45.69 17.03,18.54 -47.39,43.53 c -7.57,6.96 -7.77,11.71 -3.1,16.81 4.68,5.09 12.03,6.28 20.64,4.39 l 48.43,-44.49 17.03,18.54 -69.19,63.55 z"
   id="path20"
   inkscape:connector-curvature="0"
   style="fill:#ff9700" />
		<path
   class="st0"
   d="m 1445.66,590.54 c -11.17,-15.98 -7.84,-30.55 9.2,-42.68 l 38.11,-27.16 -8.13,-11.4 14.44,-10.29 8.13,11.4 16.75,-11.93 17.06,18.75 -19.2,13.68 12.55,17.61 -15.88,8.27 -11.11,-15.59 -37.68,26.85 c -7.51,5.35 -8.65,9.86 -4.94,15.06 1.95,2.74 4.77,4.87 8.91,6.71 l -8.1,16.43 c -7.91,-2.85 -15.28,-8.92 -20.11,-15.71 z"
   id="path22"
   inkscape:connector-curvature="0"
   style="fill:#ff9700" />
		<path
   class="st0"
   d="m 1577.44,619.29 -23.21,8.32 c -0.79,-2.82 -1.47,-5.08 -3.04,-7.85 -5.7,-10.01 -15.73,-10.42 -30.49,-5.89 l -42.2,24.04 -12.46,-21.87 81.63,-46.5 10.79,18.94 -14.72,11.04 c 13.59,-2.64 24.84,1.35 30.28,10.9 1.67,2.93 2.61,5.66 3.42,8.87 z"
   id="path24"
   inkscape:connector-curvature="0"
   style="fill:#ff9700" />
		<path
   class="st0"
   d="m 1540.87,738.19 -17.42,1.59 c -3.33,-10.14 -2.82,-18.05 4.32,-25.3 -12.09,-2.2 -19.69,-10.15 -24.04,-20.44 -7.31,-17.31 -0.77,-32.78 14.91,-39.4 18.94,-8.01 35.23,1.85 46.07,27.49 l 4.21,9.96 4.24,-1.79 c 10.78,-4.55 12.27,-10.58 7.65,-21.52 -2.41,-5.71 -7.57,-13.35 -14.23,-20.93 l 13.3,-11.78 c 8.8,8.98 15.75,19.51 19.89,29.31 10.14,24 3.88,38.77 -15.71,47.05 l -34.94,14.77 c -7.02,2.97 -8.58,6.13 -8.25,10.99 z m -1.67,-33.55 16.49,-6.97 -3.24,-7.67 c -5.31,-12.57 -12.51,-16.85 -21.98,-12.84 -7.67,3.24 -10.43,9.03 -7.39,16.21 2.83,6.69 8.39,10.3 16.12,11.27 z"
   id="path26"
   inkscape:connector-curvature="0"
   style="fill:#ff9700" />
		<path
   class="st0"
   d="m 1556.27,781.49 c 0.51,1.7 1.41,3.46 2.49,4.62 l -15.68,10.06 c -3.24,-4.03 -6.21,-9.62 -7.93,-15.39 -4.27,-14.27 1.78,-24.96 17.41,-29.63 L 1657,719.9 l 9.93,23.3 -104.95,31.4 c -5.09,1.53 -6.68,3.66 -5.71,6.89 z"
   id="path28"
   inkscape:connector-curvature="0"
   style="fill:#ff9700" />
		<path
   class="st0"
   d="m 1651.9,951.03 c -19.28,1.2 -34.26,-8.35 -71.24,-43.17 l 3.11,50.07 -19.64,-1.62 -4.71,-75.9 18.22,-1.13 c 43.03,38 54.6,47.05 70.53,46.06 10.26,-0.64 16.05,-7.57 15.44,-17.3 -0.56,-9.02 -4.84,-14.97 -13.95,-21.51 l 11.09,-15.96 c 13.15,8.77 21.4,21.4 22.46,38.56 1.59,25.47 -12.74,40.74 -31.31,41.9 z"
   id="path30"
   inkscape:connector-curvature="0"
   style="fill:#ff9700" />
		<path
   class="st0"
   d="m 1616.92,1061.06 c -39.75,-3.19 -60.99,-20.01 -58.68,-48.81 2.3,-28.62 25.94,-41.84 65.69,-38.65 39.93,3.2 60.81,19.99 58.52,48.62 -2.3,28.79 -25.59,42.04 -65.53,38.84 z m 4.95,-61.67 c -32.33,-2.59 -43.73,2.01 -44.72,14.38 -0.99,12.37 8.98,18.86 41.84,21.49 33.04,2.65 43.74,-2.18 44.73,-14.55 1,-12.37 -9.52,-18.72 -41.85,-21.32 z"
   id="path32"
   inkscape:connector-curvature="0"
   style="fill:#ff9700" />
		<path
   class="st0"
   d="m 1628.61,1158.28 c -14.35,-3.25 -21.69,-14.18 -22.32,-29.04 -4.84,14.17 -16.4,24.27 -34.73,20.12 -19.71,-4.46 -32.26,-23.66 -25.96,-51.5 3.8,-16.77 12.96,-28.32 26.06,-34.81 l 10.05,16.63 c -9.77,5.42 -14.74,12.11 -16.77,21.1 -2.66,11.75 2.32,21.06 13.9,23.68 12.96,2.94 19.28,-3.27 22.17,-16.06 l 2.15,-9.51 16.62,6.85 -1.45,6.4 c -2.39,10.54 1.85,19.14 12.39,21.52 8.99,2.04 15.8,-3.15 18.07,-13.18 2,-8.82 0.32,-16.65 -4.82,-25.26 l 16.09,-9.26 c 7.64,12.82 10.01,26.44 6.68,41.13 -5.59,24.75 -21.88,34.87 -38.13,31.19 z"
   id="path34"
   inkscape:connector-curvature="0"
   style="fill:#ff9700" />
		<path
   class="st0"
   d="m 1560.28,1254.99 c -37.26,-14.22 -52.92,-36.33 -42.62,-63.32 10.24,-26.83 36.65,-32.88 73.91,-18.65 37.43,14.29 52.75,36.27 42.51,63.09 -10.3,27 -36.37,33.17 -73.8,18.88 z m 22.06,-57.79 c -30.31,-11.57 -42.53,-10.35 -46.96,1.24 -4.42,11.59 3.32,20.62 34.12,32.38 30.97,11.82 42.6,10.19 47.02,-1.4 4.44,-11.6 -3.87,-20.65 -34.18,-32.22 z"
   id="path36"
   inkscape:connector-curvature="0"
   style="fill:#ff9700" />
	</g>
	<path
   class="st1"
   d="M 1287.9,560.59 C 1068.18,346.93 716.86,351.83 503.19,571.55 c -213.67,219.72 -208.76,571.04 10.96,784.71 219.72,213.67 571.04,208.76 784.71,-10.96 213.67,-219.72 208.75,-571.04 -10.96,-784.71 z m -92.31,174.58 c -3.54,35.83 -35.45,62.01 -71.28,58.47 -35.83,-3.54 -62.01,-35.45 -58.47,-71.28 3.54,-35.83 35.45,-62.01 71.28,-58.47 35.83,3.54 62.01,35.45 58.47,71.28 z"
   id="path40"
   inkscape:connector-curvature="0"
   style="fill:#00dee8" />
</g>
</svg>